<svg xmlns="http://www.w3.org/2000/svg" width="55px" height="55px" viewBox="0 0 202.02 202.02" style="vertical-align:middle">
    <g transform="translate(-3.65 -3.93)">
        <circle style="opacity:1;fill:none;fill-opacity:1;stroke:currentColor;stroke-width:16;stroke-miterlimit:4;stroke-dasharray:none;stroke-opacity:1" cx="104.66" cy="104.94" r="93.01"/>
    </g>
    <g style="display:inline;fill:currentColor;fill-opacity:1;stroke:none">
        <path d="m242.73 334.58 28.99-2.5-.77 48q-.19 4.8.2 8.45.38 3.26 1.15 5.76.76 2.5 2.5 2.5 1.53 0 2.49-1.93 1.15-2.1 1.73-4.6.76-2.88.96-6.72h8.25q.58 2.68.58 5.95 0 2.69-.58 6.53-.57 3.84-2.5 8.25-1.53 4.61-3.83 7.68-2.12 3.07-4.8 5-2.5 1.91-5.19 2.87-2.69.96-5.18 1.54-2.69.38-6.91-1.34-4.04-1.73-8.07-4.04-4.8-2.68-9.98-6.14-4.42 2.88-7.87 5.18-3.08 2.12-6.15 4.04-2.88 1.92-4.03 2.3-.96.38-4.42 1.34-3.45.96-8.44.77-5 0-11.14-2.3-6.14-2.11-12.29-8.07-6.33-6.14-9.02-13.24-2.69-7.3-3.65-13.44-.96-7.3 0-14.4.38-8.26 2.69-15.94 2.11-6.53 6.33-13.44 4.42-6.91 12.48-11.33 8.07-4.41 15.94-3.84 8.06.39 14.4 2.5 7.49 2.5 14.4 7.3zm-19.01 12.28q-5.57 0-9.4 6.15-3.85 6.14-3.85 18.24 0 12.48 3.84 19.2 3.84 6.72 9.41 6.72t9.8-6.72q4.22-6.72 4.22-19.2 0-12.1-4.23-18.24-4.22-6.15-9.79-6.15z" style="font-size:192px" transform="translate(-82.94 -145.69) scale(.6706)" aria-label="a"/>
        <path d="M217.2 420.6h-42.63v-16.14q3.84.2 6.72-.57 2.5-.77 4.41-2.69 2.12-2.11 1.73-6.34v-19.39q.2-6.91.2-14.78.19-8.07.19-16.13.19-18.82.38-41.28l29-12.1v74.12q2.87.19 5.75-.2 2.5-.38 5-.96 2.49-.57 4.41-2.1 3.07-3.08 1.92-6.34-1.15-3.46-8.26-3.46l.77-11.14 43.2-.96q1.73 10.37.77 18.82-.38 3.65-1.54 7.1-.96 3.46-2.88 6.34t-4.99 4.8q-3.07 1.92-7.3 2.3l29 40.13-38.6.96-19.39-23.23q-2.3-1.54-4.03-1.92-1.53-.38-2.69.38-1.15.77-1.15 3.84z" style="font-size:192px" transform="translate(-21.52 -145.16) scale(.6706)" aria-label="k"/>
    </g>
</svg>
