<?xml version="1.0" encoding="UTF-8" standalone="no"?>
<svg
   xmlns:dc="http://purl.org/dc/elements/1.1/"
   xmlns:cc="http://creativecommons.org/ns#"
   xmlns:rdf="http://www.w3.org/1999/02/22-rdf-syntax-ns#"
   xmlns:svg="http://www.w3.org/2000/svg"
   xmlns="http://www.w3.org/2000/svg"
   xmlns:sodipodi="http://sodipodi.sourceforge.net/DTD/sodipodi-0.dtd"
   xmlns:inkscape="http://www.inkscape.org/namespaces/inkscape"
   width="202.02408mm"
   height="202.02408mm"
   viewBox="0 0 202.02408 202.02408"
   version="1.1"
   id="svg867"
   inkscape:version="1.0.2 (e86c8708, 2021-01-15)"
   sodipodi:docname="ak-logo-2021-white.svg">
  <defs
     id="defs861" />
  <sodipodi:namedview
     id="base"
     pagecolor="#ffffff"
     bordercolor="#666666"
     borderopacity="1.0"
     inkscape:pageopacity="0.0"
     inkscape:pageshadow="2"
     inkscape:zoom="0.79026254"
     inkscape:cx="244.18476"
     inkscape:cy="375.01711"
     inkscape:document-units="mm"
     inkscape:current-layer="layer1"
     showgrid="false"
     showguides="true"
     inkscape:guide-bbox="true"
     inkscape:snap-bbox="true"
     inkscape:bbox-paths="false"
     inkscape:snap-to-guides="true"
     inkscape:bbox-nodes="false"
     inkscape:snap-bbox-edge-midpoints="false"
     inkscape:object-paths="true"
     inkscape:snap-intersection-paths="true"
     inkscape:snap-bbox-midpoints="true"
     inkscape:snap-nodes="false"
     inkscape:window-width="1440"
     inkscape:window-height="847"
     inkscape:window-x="0"
     inkscape:window-y="25"
     inkscape:window-maximized="1"
     inkscape:document-rotation="0"
     fit-margin-top="0"
     fit-margin-left="0"
     fit-margin-right="0"
     fit-margin-bottom="0"
     inkscape:pagecheckerboard="true">
    <sodipodi:guide
       position="194.06284,101.01204"
       orientation="0,1"
       id="guide1461"
       inkscape:locked="false" />
    <sodipodi:guide
       position="101.01204,194.06153"
       orientation="1,0"
       id="guide1463"
       inkscape:locked="false" />
    <sodipodi:guide
       position="114.47321,63.829913"
       orientation="0,1"
       id="guide5187"
       inkscape:locked="false" />
  </sodipodi:namedview>
  <metadata
     id="metadata864">
    <rdf:RDF>
      <cc:Work
         rdf:about="">
        <dc:format>image/svg+xml</dc:format>
        <dc:type
           rdf:resource="http://purl.org/dc/dcmitype/StillImage" />
        <dc:title></dc:title>
      </cc:Work>
    </rdf:RDF>
  </metadata>
  <g
     inkscape:label="Circle"
     inkscape:groupmode="layer"
     id="layer1"
     style="display:inline"
     transform="translate(-3.6517944,-3.9308319)">
    <circle
       style="opacity:1;fill:none;fill-opacity:1;stroke:#ffffff;stroke-width:16;stroke-miterlimit:4;stroke-dasharray:none;stroke-opacity:1"
       id="path1459"
       cx="104.66383"
       cy="104.94287"
       r="93.012039" />
  </g>
  <g
     inkscape:groupmode="layer"
     id="layer2"
     inkscape:label="Text"
     style="display:none"
     transform="translate(-3.6517944,-3.9308319)">
    <flowRoot
       xml:space="preserve"
       id="flowRoot1466"
       style="font-style:normal;font-variant:normal;font-weight:normal;font-stretch:normal;font-size:40px;line-height:1.25;font-family:Vintage;-inkscape-font-specification:Vintage;letter-spacing:0px;word-spacing:0px;display:inline;fill:#000000;fill-opacity:1;stroke:none"
       transform="matrix(0.67059797,0,0,0.67059797,-79.289958,-141.75957)"><flowRegion
         id="flowRegion1468"><rect
           id="rect1470"
           width="786.6142"
           height="606.6142"
           x="171.49606"
           y="243.77953" /></flowRegion><flowPara
         id="flowPara1472"
         style="font-size:192px">a</flowPara></flowRoot>
    <flowRoot
       xml:space="preserve"
       id="flowRoot1466-8"
       style="font-style:normal;font-variant:normal;font-weight:normal;font-stretch:normal;font-size:40px;line-height:1.25;font-family:Vintage;-inkscape-font-specification:Vintage;letter-spacing:0px;word-spacing:0px;display:inline;fill:#000000;fill-opacity:1;stroke:none"
       transform="matrix(0.67059797,0,0,0.67059797,-17.868804,-141.2304)"><flowRegion
         id="flowRegion1468-7"><rect
           id="rect1470-9"
           width="786.6142"
           height="606.6142"
           x="171.49606"
           y="243.77953" /></flowRegion><flowPara
         id="flowPara1472-5"
         style="font-size:192px">k</flowPara></flowRoot>
  </g>
  <g
     style="display:inline"
     inkscape:label="Text to path"
     id="g5232"
     inkscape:groupmode="layer"
     transform="translate(-3.6517944,-3.9308319)">
    <g
       aria-label="a"
       transform="matrix(0.67059797,0,0,0.67059797,-79.289958,-141.75957)"
       style="font-style:normal;font-variant:normal;font-weight:normal;font-stretch:normal;font-size:40px;line-height:1.25;font-family:Vintage;-inkscape-font-specification:Vintage;letter-spacing:0px;word-spacing:0px;display:inline;fill:#ffffff;fill-opacity:1;stroke:none"
       id="flowRoot5222">
      <path
         d="m 242.72809,334.57599 28.992,-2.496 -0.768,48 q -0.192,4.8 0.192,8.448 0.384,3.264 1.152,5.76 0.768,2.496 2.496,2.496 1.536,0 2.496,-1.92 1.152,-2.112 1.728,-4.608 0.768,-2.88 0.96,-6.72 h 8.256 q 0.576,2.688 0.576,5.952 0,2.688 -0.576,6.528 -0.576,3.84 -2.496,8.256 -1.536,4.608 -3.84,7.68 -2.112,3.072 -4.8,4.992 -2.496,1.92 -5.184,2.88 -2.688,0.96 -5.184,1.536 -2.688,0.384 -6.912,-1.344 -4.032,-1.728 -8.064,-4.032 -4.8,-2.688 -9.984,-6.144 -4.416,2.88 -7.872,5.184 -3.072,2.112 -6.144,4.032 -2.88,1.92 -4.032,2.304 -0.96,0.384 -4.416,1.344 -3.456,0.96 -8.448,0.768 -4.992,0 -11.136,-2.304 -6.144,-2.112 -12.288,-8.064 -6.336,-6.144 -9.024,-13.248 -2.688,-7.296 -3.648,-13.44 -0.96,-7.296 0,-14.4 0.384,-8.256 2.688,-15.936 2.112,-6.528 6.336,-13.44 4.416,-6.912 12.48,-11.328 8.064,-4.416 15.936,-3.84 8.064,0.384 14.4,2.496 7.488,2.496 14.4,7.296 z m -19.008,12.288 q -5.568,0 -9.408,6.144 -3.84,6.144 -3.84,18.24 0,12.48 3.84,19.2 3.84,6.72 9.408,6.72 5.568,0 9.792,-6.72 4.224,-6.72 4.224,-19.2 0,-12.096 -4.224,-18.24 -4.224,-6.144 -9.792,-6.144 z"
         style="font-size:192px;fill:#ffffff"
         id="path5237"
         inkscape:connector-curvature="0" />
    </g>
    <g
       aria-label="k"
       transform="matrix(0.67059797,0,0,0.67059797,-17.868804,-141.2304)"
       style="font-style:normal;font-variant:normal;font-weight:normal;font-stretch:normal;font-size:40px;line-height:1.25;font-family:Vintage;-inkscape-font-specification:Vintage;letter-spacing:0px;word-spacing:0px;display:inline;fill:#ffffff;fill-opacity:1;stroke:none"
       id="flowRoot5230">
      <path
         d="m 217.19209,420.59199 h -42.624 v -16.128 q 3.84,0.192 6.72,-0.576 2.496,-0.768 4.416,-2.688 2.112,-2.112 1.728,-6.336 0,-2.304 0,-7.296 0,-5.184 0,-12.096 0.192,-6.912 0.192,-14.784 0.192,-8.064 0.192,-16.128 0.192,-18.816 0.384,-41.28 l 28.992,-12.096 v 74.112 q 2.88,0.192 5.76,-0.192 2.496,-0.384 4.992,-0.96 2.496,-0.576 4.416,-2.112 3.072,-3.072 1.92,-6.336 -1.152,-3.456 -8.256,-3.456 l 0.768,-11.136 43.2,-0.96 q 1.728,10.368 0.768,18.816 -0.384,3.648 -1.536,7.104 -0.96,3.456 -2.88,6.336 -1.92,2.88 -4.992,4.8 -3.072,1.92 -7.296,2.304 l 28.992,40.128 -38.592,0.96 -19.392,-23.232 q -2.304,-1.536 -4.032,-1.92 -1.536,-0.384 -2.688,0.384 -1.152,0.768 -1.152,3.84 z"
         style="font-size:192px;fill:#ffffff"
         id="path5234"
         inkscape:connector-curvature="0" />
    </g>
  </g>
</svg>
